<svg width="812.975" height="290.012" fill="inherit" xmlns="http://www.w3.org/2000/svg"><path d="M175.57 245.419h47.402l-29.94-45.217c21.203-20.27 33.99-49.272 33.99-81.394 0-62.678-48.648-113.507-113.2-113.507C48.96 5.301 0 56.131 0 118.808c0 62.37 48.96 112.888 113.823 112.888 16.53 0 32.122-3.427 46.156-9.351zM45.217 118.809c0-39.605 26.198-72.973 68.606-72.973 42.101 0 67.983 33.368 67.983 72.972 0 15.908-4.055 30.564-11.848 42.724l-9.668-14.345h-47.406l26.194 39.604c-7.487 2.809-15.904 4.37-25.26 4.37-42.408 0-68.606-32.749-68.606-72.353zm203.797 171.203h39.916V0h-39.916zm148.56-58.316c32.121 0 59.254-14.34 72.353-34.614l-32.745-24.636c-7.487 12.476-21.516 21.831-39.604 21.831-21.205 0-35.55-13.41-40.228-32.433h121.305c.94-5.301 1.25-10.29 1.25-14.969 0-46.779-33.68-85.444-82.327-85.444-48.649 0-83.887 38.67-83.887 85.444 0 46.78 33.68 84.821 83.887 84.821zM357.35 130.35c4.674-19.335 19.647-32.745 39.604-32.745 20.581 0 35.861 14.657 40.54 32.745zm139.558 97.297h42.097V144.69c0-27.128 18.711-43.343 43.036-43.343h5.928V61.743c-28.072-1.558-44.598 11.225-50.21 34.615V65.482h-40.85zm141.856 61.414c38.046 0 58.316-22.143 72.038-54.888l71.726-172.446h-49.895l-31.499 92.614c-2.804 7.798-5.3 17.466-6.859 25.882-1.557-8.416-4.054-18.088-6.863-25.882l-31.494-92.619h-50.83l64.24 154.678-2.185 6.859c-4.674 14.345-14.969 24.636-31.183 24.636-6.864 0-12.788-.624-19.023-2.181L610.7 285.94c8.417 2.492 19.646 3.116 28.063 3.116zm146.455-61.124c16.22 0 27.756-12.476 27.756-27.444 0-14.657-11.537-27.133-27.756-27.133-16.214 0-28.063 12.476-28.063 27.133 0 14.972 11.849 27.444 28.063 27.444z" aria-label="Q|ery."/></svg>