<svg width="831" height="310" fill="none" xmlns="http://www.w3.org/2000/svg"><path d="M790.692 238.561v-50.017h40.198v50.017h-40.198ZM640.897 262.803c4.092 1.227 7.876 2.148 11.354 2.761 3.682.819 6.955 1.228 9.819 1.228 3.887 0 7.16-.921 9.82-2.762 2.864-1.636 5.318-4.603 7.364-8.899 2.046-4.091 3.887-9.614 5.523-16.57l-61.37-161.098h50.631l37.436 110.774 31.912-110.774h46.335l-61.37 187.181c-2.864 8.796-7.263 16.57-13.195 23.321-5.933 6.751-13.092 11.967-21.48 15.649-8.387 3.887-17.593 5.83-27.617 5.83-4.296 0-8.489-.409-12.581-1.227-4.091-.614-8.285-1.739-12.581-3.375v-42.039ZM618.991 119.502c-11.865 0-22.605 1.944-32.22 5.83-9.614 3.683-16.57 9.206-20.866 16.571v96.658h-49.096V77.463h45.107v32.527c5.524-10.842 12.684-19.332 21.48-25.469 8.797-6.137 18.002-9.308 27.617-9.513h4.91c1.227 0 2.25.103 3.068.307v44.187ZM408.638 241.63c-13.706 0-25.878-2.148-36.515-6.444-10.638-4.501-19.741-10.535-27.31-18.104-7.365-7.569-12.99-16.264-16.877-26.083-3.887-10.024-5.83-20.457-5.83-31.299 0-15.547 3.375-29.662 10.126-42.346 6.955-12.888 16.877-23.218 29.764-30.992 12.888-7.978 28.436-11.967 46.642-11.967 18.207 0 33.652 3.887 46.335 11.66 12.888 7.774 22.707 18.002 29.458 30.686 6.751 12.478 10.126 26.082 10.126 40.811 0 2.864-.204 5.728-.614 8.592a314.118 314.118 0 0 1-.613 7.058H374.271c.613 7.16 2.557 13.194 5.83 18.104 3.478 4.91 7.876 8.694 13.195 11.354 5.318 2.454 10.944 3.682 16.876 3.682 7.365 0 14.218-1.739 20.56-5.217 6.546-3.477 11.046-8.183 13.501-14.115l41.732 11.66c-4.091 8.388-9.921 15.855-17.49 22.401-7.365 6.341-16.161 11.353-26.39 15.036-10.024 3.682-21.173 5.523-33.447 5.523Zm-35.595-98.5h69.963c-.818-6.751-2.762-12.581-5.83-17.491-3.069-5.114-7.16-9.001-12.275-11.66-5.114-2.864-10.739-4.296-16.877-4.296-6.341 0-12.069 1.432-17.183 4.296-4.91 2.659-8.899 6.546-11.968 11.66-3.068 4.91-5.012 10.74-5.83 17.491Zm50.938-80.089-31.299-8.592 15.956-39.89h44.494L423.981 63.04ZM249.376 278.452V.75h41.426v277.702h-41.426ZM108.902 240.096c-16.365 0-31.196-3.069-44.493-9.206-13.093-6.137-24.446-14.422-34.061-24.855-9.41-10.638-16.672-22.503-21.787-35.595C3.447 157.143.89 143.437.89 129.322c0-14.525 2.66-28.333 7.978-41.426 5.524-13.297 13.093-25.06 22.707-35.288C41.395 42.38 52.953 34.3 66.25 28.367c13.297-6.137 27.821-9.206 43.573-9.206 16.161 0 30.788 3.171 43.88 9.513 13.297 6.341 24.651 14.83 34.061 25.468 9.614 10.638 16.979 22.605 22.093 35.902 5.114 13.093 7.671 26.492 7.671 40.198 0 14.525-2.659 28.333-7.978 41.425-5.318 13.093-12.888 24.855-22.707 35.288-9.819 10.229-21.377 18.309-34.674 24.242-13.093 5.932-27.515 8.899-43.267 8.899Zm.307-44.801c9.615 0 18.002-1.841 25.162-5.523 7.16-3.887 13.093-8.899 17.798-15.036 4.705-6.342 8.182-13.399 10.433-21.173 2.455-7.978 3.682-16.059 3.682-24.241 0-8.388-1.227-16.468-3.682-24.242-2.455-7.978-6.137-15.036-11.047-21.173-4.91-6.137-10.944-10.944-18.104-14.422-7.16-3.682-15.241-5.523-24.242-5.523-9.615 0-18.002 1.943-25.162 5.83-6.955 3.682-12.888 8.694-17.797 15.036-4.705 6.137-8.285 13.194-10.74 21.173-2.25 7.773-3.375 15.752-3.375 23.934 0 8.388 1.227 16.468 3.682 24.242 2.455 7.773 6.035 14.831 10.74 21.173 4.91 6.137 10.944 11.046 18.104 14.729 7.16 3.477 15.343 5.216 24.548 5.216Zm-13.501-42.653h47.255l77.634 85.919h-47.255l-77.634-85.919Z" fill="#1E1E1E"/></svg>